# xmcd CD database file
#
# Track frame offsets:
#	150
#	20457
#	48547
#
# Disc length: 916 seconds
#
# Revision: 0
# Processed by: cddbd v1.5PL3 Copyright (c) Steve Scherf et al.
# Submitted via: CDex 1.51
#
DISCID=1e039203
DTITLE=浅倉大介expd.西川貴教 - BLACK OR WHITE?
DYEAR=1995
DGENRE=Electronic
TTITLE0=BLACK OR WHITE?
TTITLE1=ATLANTIC WEAVE
TTITLE2=BLACK OR WHITE? (INSTRUMENTAL MIX)
EXTD=YEAR: 1995
EXTT0=
EXTT1=
EXTT2=
PLAYORDER=
